<?xml version="1.0" encoding="utf-8"?>
<!-- Generator: Adobe Illustrator 23.0.2, SVG Export Plug-In . SVG Version: 6.00 Build 0)  -->
<svg version="1.1" id="Слой_1" xmlns="http://www.w3.org/2000/svg" xmlns:xlink="http://www.w3.org/1999/xlink" x="0px" y="0px"
	 viewBox="0 0 609.4 90.7" style="enable-background:new 0 0 609.4 90.7;" xml:space="preserve">
<style type="text/css">
	.st0{clip-path:url(#SVGID_2_);}
	.st1{fill:#FFFFFF;}
	.st2{fill:#E50E47;}
</style>
<g>
	<defs>
		<rect id="SVGID_1_" x="1.8" y="0.1" width="606.6" height="90.7"/>
	</defs>
	<clipPath id="SVGID_2_">
		<use xlink:href="#SVGID_1_"  style="overflow:visible;"/>
	</clipPath>
	<g class="st0">
		<path class="st1" d="M259.2,5.6c0-0.7-0.1-1.5-0.4-2.2c-0.3-0.7-0.7-1.3-1.3-1.8c-0.6-0.5-1.3-1-2-1.2c-0.7-0.3-1.5-0.4-2.3-0.4
			c-0.8,0-1.6,0.2-2.3,0.6c-0.7,0.3-1.4,0.8-1.9,1.4l-18,26.6c-0.4,0.5-0.8,0.9-1.3,1.3c-0.3,0.3-0.6,0.4-1,0.5
			c-0.4,0-0.7-0.2-1-0.5c-0.5-0.5-1-0.9-1.4-1.3L208.5,2.2c-0.5-0.7-1.2-1.3-2-1.6c-0.8-0.4-1.7-0.6-2.5-0.5c-1.5,0-3,0.6-4.1,1.6
			c-0.6,0.5-1,1.1-1.3,1.8c-0.3,0.7-0.4,1.4-0.4,2.2c0,0.8,0.2,1.6,0.5,2.3c0.3,0.6,0.6,1.1,1.1,1.6l18.7,27.7
			c1.2,1.5,2.7,2.7,4.5,3.5c1.9,0.8,3.9,1.3,5.9,1.3c2,0,4-0.5,5.9-1.4c1.8-0.9,3.4-2.1,4.7-3.7L257.9,9
			C258.8,8.1,259.2,6.9,259.2,5.6z"/>
		<path class="st1" d="M366.3,38.9c2.1-1.2,3.9-2.8,5.3-4.8c1.5-1.9,2.6-4.1,3.3-6.4c0.7-2.2,1.1-4.6,1.1-7c0-2.3-0.4-4.6-1.1-6.8
			c-0.7-2.3-1.8-4.4-3.1-6.3c-1.4-1.9-3.1-3.5-5-4.8c-2.1-1.3-4.5-2.1-7-2.1h-19.9c-2.6,0-5.1,0.6-7.3,1.9c-2.1,1.2-3.9,2.8-5.3,4.8
			c-1.4,1.9-2.5,4.1-3.3,6.4c-0.7,2.3-1.1,4.6-1.1,7c0,2.3,0.4,4.6,1.1,6.8c0.7,2.3,1.7,4.4,3.1,6.3c1.4,1.9,3.1,3.5,5,4.8
			c2.1,1.3,4.5,2.1,7,2.1H359C361.5,40.8,364.1,40.1,366.3,38.9z M341.7,29.6c-1.4,0.1-2.8-0.2-4-0.9c-0.9-0.5-1.8-1.3-2.4-2.2
			c-0.6-0.8-1-1.8-1.2-2.8c-0.2-1-0.3-2-0.3-3.1c0-1,0.1-2.1,0.3-3.1c0.2-1,0.6-2,1.2-2.8c0.6-0.9,1.5-1.6,2.4-2.2
			c1.2-0.6,2.6-0.9,4-0.9h15.5c1.4-0.1,2.8,0.2,4,0.9c1,0.5,1.8,1.3,2.4,2.1c0.6,0.8,1,1.8,1.2,2.8c0.2,1,0.3,2,0.3,3.1
			c0,1-0.1,2.1-0.3,3.1c-0.2,1-0.6,2-1.2,2.8c-0.6,0.9-1.5,1.6-2.4,2.1c-1.2,0.6-2.6,0.9-4,0.9H341.7z"/>
		<path class="st1" d="M409.8,39.1c0.5-0.5,0.9-1.1,1.2-1.8c0.3-0.7,0.4-1.4,0.4-2.1V11.8h18.1c1.3-0.1,2.6-0.8,3.5-1.8
			c1-1,1.5-2.4,1.5-3.8c0-0.7-0.1-1.5-0.4-2.1c-0.3-0.7-0.7-1.3-1.2-1.8c-0.5-0.5-1.1-0.9-1.8-1.2c-0.7-0.3-1.4-0.4-2.1-0.4h-46.3
			c-0.7,0-1.5,0.1-2.1,0.4c-0.7,0.3-1.3,0.7-1.8,1.2c-0.5,0.5-0.9,1.1-1.2,1.8c-0.3,0.7-0.4,1.4-0.4,2.1c0,0.7,0.1,1.5,0.4,2.1
			s0.7,1.3,1.2,1.8c0.5,0.5,1.1,0.9,1.8,1.2c0.7,0.3,1.4,0.4,2.1,0.4h17.6c0,2.5,0,7.6,0,8.8v14.5c0,1.1,0.3,2.2,0.9,3.1
			c0.6,0.9,1.5,1.6,2.5,2.1c1,0.4,2.1,0.5,3.2,0.3C408,40.4,409,39.9,409.8,39.1L409.8,39.1z"/>
		<path class="st1" d="M445.5,40.8c1.5,0,2.9-0.6,3.9-1.6c1-1,1.6-2.5,1.6-3.9v-8.8h25.4v8.8c0,1.5,0.6,2.9,1.6,4
			c1,1,2.5,1.6,3.9,1.6c1.5,0,2.9-0.6,3.9-1.6c1-1,1.6-2.5,1.6-4V6.2c0-0.7-0.1-1.5-0.4-2.1c-0.3-0.7-0.7-1.3-1.2-1.8
			c-1-1-2.4-1.6-3.9-1.6c-1.5,0-2.9,0.6-3.9,1.6c-0.5,0.5-0.9,1.1-1.2,1.8c-0.3,0.7-0.4,1.4-0.4,2.1v8.9H451V6.2
			c0-0.7-0.1-1.5-0.4-2.1c-0.3-0.7-0.7-1.3-1.2-1.8c-1-1-2.4-1.6-3.9-1.6c-1.5,0-2.9,0.6-3.9,1.6c-0.5,0.5-0.9,1.1-1.2,1.8
			c-0.3,0.7-0.4,1.4-0.4,2.1v28.9c0,0.7,0.1,1.5,0.4,2.1c0.3,0.7,0.7,1.3,1.2,1.8c0.5,0.5,1.1,0.9,1.8,1.2
			C444.1,40.6,444.8,40.8,445.5,40.8L445.5,40.8z"/>
		<path class="st1" d="M545,40.8c0.7,0,1.4-0.1,2.1-0.4c0.7-0.3,1.3-0.7,1.8-1.2c0.5-0.5,0.9-1.1,1.2-1.8c0.3-0.7,0.4-1.4,0.4-2.1
			c0-0.7-0.1-1.5-0.4-2.2c-0.3-0.7-0.7-1.3-1.2-1.8c-0.5-0.5-1.1-0.9-1.8-1.2c-0.7-0.3-1.4-0.4-2.1-0.4h-27.9
			c-1.4,0.1-2.8-0.2-4-0.9c-0.9-0.5-1.8-1.3-2.4-2.2c-0.6-0.8-1-1.8-1.2-2.8c-0.2-1-0.3-2-0.3-3.1c0-1,0.1-2.1,0.4-3.1
			c0.2-1,0.6-2,1.2-2.8c0.6-0.9,1.4-1.6,2.4-2.2c1.2-0.6,2.6-0.9,4-0.9H545c0.7,0,1.4-0.1,2.1-0.4c0.7-0.3,1.3-0.7,1.8-1.2
			c0.5-0.5,0.9-1.1,1.2-1.8c0.3-0.7,0.4-1.4,0.4-2.1c0-0.7-0.1-1.5-0.4-2.1c-0.3-0.7-0.7-1.3-1.2-1.8c-0.5-0.5-1.1-0.9-1.8-1.2
			c-0.7-0.3-1.4-0.4-2.1-0.4h-29.7c-2.6,0-5.1,0.6-7.3,1.9c-2.1,1.2-3.9,2.8-5.3,4.8c-1.5,1.9-2.6,4.1-3.3,6.4
			c-0.7,2.2-1.1,4.6-1.1,7c0,2.3,0.4,4.7,1.1,6.9c0.7,2.3,1.8,4.5,3.1,6.4c1.3,1.9,3.1,3.5,5,4.8c2.1,1.3,4.5,2,6.9,1.9H545z"/>
		<path class="st1" d="M272.1,40.9c0.7,0,1.4-0.1,2.1-0.4c0.7-0.3,1.3-0.7,1.8-1.2c0.5-0.5,0.9-1.1,1.2-1.8c0.3-0.7,0.4-1.4,0.4-2.1
			V17l26.9,22.1l0.1,0.2c1,1,2.4,1.6,3.9,1.6c1.5,0,2.9-0.6,3.9-1.6c0.5-0.5,0.9-1.1,1.2-1.8c0.3-0.7,0.4-1.4,0.4-2.1V5.8
			c0-0.7-0.1-1.5-0.4-2.1c-0.3-0.7-0.7-1.3-1.2-1.8c-1-1-2.4-1.6-3.9-1.6c-1.5,0-2.9,0.6-3.9,1.6c-0.5,0.5-0.9,1.1-1.2,1.8
			c-0.3,0.7-0.4,1.4-0.4,2.1v17.8L275.9,1.2l-0.1-0.1c-1-0.7-2.2-1-3.4-0.9h-0.2c-0.7,0-1.5,0.1-2.1,0.4c-0.7,0.3-1.3,0.7-1.8,1.2
			c-0.5,0.5-0.9,1.1-1.2,1.8c-0.3,0.7-0.4,1.4-0.4,2.1v29.6c0,0.7,0.1,1.5,0.4,2.1c0.3,0.7,0.7,1.3,1.2,1.8c0.5,0.5,1.1,0.9,1.8,1.2
			C270.7,40.8,271.4,40.9,272.1,40.9z"/>
		<path class="st1" d="M521.1,15.1c-0.7,0-1.5,0.1-2.1,0.4c-0.7,0.3-1.3,0.7-1.8,1.2c-0.5,0.5-0.9,1.1-1.2,1.8
			c-0.3,0.7-0.4,1.4-0.4,2.1c0,0.7,0.1,1.5,0.4,2.2c0.3,0.7,0.7,1.3,1.2,1.8c0.5,0.5,1.1,0.9,1.8,1.2c0.7,0.3,1.4,0.4,2.1,0.4h13.4
			c0.7,0,1.5-0.1,2.1-0.4c0.7-0.3,1.3-0.7,1.8-1.2c1-1.1,1.6-2.5,1.6-4c0-1.5-0.6-2.9-1.6-4c-0.5-0.5-1.1-0.9-1.8-1.2
			c-0.7-0.3-1.4-0.4-2.1-0.4L521.1,15.1z"/>
		<path class="st1" d="M224.8,15.8h8c0.7,0,1.5-0.1,2.1-0.4c0.7-0.3,1.3-0.7,1.8-1.2c0.5-0.5,0.9-1.1,1.2-1.8
			c0.3-0.7,0.4-1.4,0.4-2.2c0-0.7-0.1-1.5-0.4-2.1c-0.3-0.7-0.7-1.3-1.2-1.8c-0.5-0.5-1.1-0.9-1.8-1.2c-0.7-0.3-1.4-0.4-2.1-0.4h-8
			c-0.7,0-1.5,0.1-2.1,0.4s-1.3,0.7-1.8,1.2c-0.5,0.5-0.9,1.1-1.2,1.8c-0.3,0.7-0.4,1.4-0.4,2.1c0,1.5,0.6,2.9,1.6,4
			C221.9,15.2,223.3,15.8,224.8,15.8z"/>
		<path class="st1" d="M606.5,31l-6.2-5.7h0.1c1.5-0.6,2.9-1.6,4.1-2.7c1.2-1.2,2.1-2.5,2.8-4c0.7-1.6,1-3.3,1-5c0-1.7-0.3-3.4-1-5
			c-0.7-1.5-1.6-2.9-2.8-4c-1.2-1.2-2.6-2.1-4.1-2.7c-1.6-0.7-3.3-1-5-1h-32c-0.7,0-1.5,0.1-2.1,0.4s-1.3,0.7-1.8,1.2
			c-0.5,0.5-0.9,1.1-1.2,1.8c-0.3,0.7-0.4,1.4-0.4,2.1c0,0.7,0.2,1.4,0.4,2.1c0.3,0.7,0.7,1.3,1.2,1.8c0.5,0.5,1.1,0.9,1.8,1.2
			c0.7,0.3,1.4,0.4,2.1,0.4h32.3c0.2,0,0.4,0,0.7,0.1c0.2,0.1,0.4,0.2,0.6,0.4c0.2,0.1,0.3,0.3,0.4,0.5c0.1,0.2,0.1,0.4,0.2,0.6
			c0,0.2,0,0.4-0.1,0.6c-0.1,0.2-0.2,0.4-0.4,0.5c-0.2,0.2-0.4,0.3-0.6,0.4c-0.2,0.1-0.4,0.1-0.7,0.1h-17.5
			c-0.9-0.1-1.8,0.1-2.6,0.4c-0.8,0.3-1.6,0.8-2.3,1.4c-0.5,0.6-0.9,1.2-1.2,1.9c-0.3,0.7-0.4,1.5-0.3,2.3c0.1,2.3,1.5,5.1,7.5,5.1
			h0.5l4.9-0.1L599,39.3c1,0.9,2.3,1.5,3.7,1.5h0.3c0.7,0,1.4-0.2,2.1-0.5c0.7-0.3,1.2-0.8,1.7-1.3c0.5-0.5,0.9-1.2,1.1-1.9
			c0.2-0.7,0.4-1.4,0.3-2.2c0-0.7-0.2-1.5-0.5-2.1C607.4,32.2,607,31.6,606.5,31L606.5,31z"/>
		<path class="st1" d="M563.4,16.3c-0.7,0-1.5,0.1-2.1,0.4c-0.7,0.3-1.3,0.7-1.8,1.2c-0.5,0.5-0.9,1.1-1.2,1.8
			c-0.3,0.7-0.4,1.4-0.4,2.1v13.6c0,0.7,0.1,1.5,0.4,2.1c0.3,0.7,0.7,1.3,1.2,1.8c0.8,0.8,1.8,1.3,2.8,1.5c1.1,0.2,2.2,0.1,3.2-0.3
			s1.9-1.1,2.5-2.1c0.6-0.9,0.9-2,0.9-3.1V21.9c0-0.7-0.1-1.5-0.4-2.1c-0.3-0.7-0.7-1.3-1.2-1.8c-0.5-0.5-1.1-0.9-1.8-1.2
			C564.9,16.5,564.2,16.3,563.4,16.3L563.4,16.3z"/>
		<path class="st1" d="M274.3,48.9c-0.8,0-1.7,0.2-2.4,0.5c-0.8,0.4-1.4,0.9-2,1.5l-18.1,26.6c-0.4,0.5-0.8,0.9-1.3,1.3
			c-0.3,0.3-0.6,0.4-1,0.4c-0.4,0-0.7-0.2-1-0.5c-0.5-0.4-0.9-0.8-1.4-1.3l-1.3-1.9l11.9-17.8c0.8-0.9,1.3-2.1,1.2-3.4
			c0-0.7-0.1-1.5-0.4-2.2s-0.7-1.3-1.3-1.8c-0.6-0.5-1.3-1-2-1.2c-0.7-0.3-1.5-0.4-2.3-0.4c-0.8,0-1.6,0.2-2.3,0.6
			c-0.7,0.4-1.4,0.8-1.9,1.4l-9.8,14.5l-9.6-14.3c-0.5-0.7-1.2-1.3-2-1.6c-0.8-0.4-1.7-0.6-2.5-0.5c-1.5,0-3,0.6-4.1,1.6
			c-0.5,0.5-1,1.1-1.3,1.8c-0.3,0.7-0.4,1.4-0.4,2.2c0,0.8,0.2,1.5,0.5,2.2c0.3,0.6,0.6,1.1,1.1,1.6l11.7,17.2l-1.5,2.1
			c-0.4,0.5-0.8,0.9-1.3,1.3c-0.1,0.1-0.3,0.3-0.4,0.3c-0.2,0.1-0.4,0.1-0.5,0.1c-0.2,0-0.4,0-0.5-0.1c-0.2-0.1-0.3-0.2-0.4-0.3
			c-0.5-0.4-0.9-0.8-1.4-1.3l-17.8-26.5c-0.5-0.7-1.2-1.3-2-1.6c-0.8-0.4-1.7-0.6-2.6-0.5c-1.5,0-3,0.6-4.1,1.6
			c-0.5,0.5-1,1.1-1.3,1.8c-0.3,0.7-0.4,1.4-0.4,2.2c0,0.8,0.2,1.5,0.5,2.2c0.3,0.6,0.6,1.1,1.1,1.6L218.4,86
			c1.2,1.5,2.8,2.7,4.5,3.5c1.9,0.8,3.9,1.3,5.9,1.2s4-0.5,5.9-1.4c1.8-0.8,3.3-2.1,4.5-3.6l0.2,0.3c1.2,1.5,2.8,2.7,4.5,3.5
			c1.9,0.8,3.9,1.3,5.9,1.2c2,0,4-0.5,5.9-1.4c1.8-0.9,3.4-2.1,4.6-3.7l18.6-27.7c0.8-0.9,1.3-2.1,1.2-3.4c0-0.8-0.1-1.5-0.4-2.2
			c-0.3-0.7-0.7-1.3-1.3-1.8C277.3,49.5,275.8,48.9,274.3,48.9z"/>
		<path class="st1" d="M333.5,56.7c-1.4-1.9-3.1-3.5-5-4.8c-2.1-1.3-4.5-2.1-7-2.1h-20c-2.6,0-5.1,0.6-7.3,1.9
			c-2.1,1.2-3.9,2.9-5.3,4.8c-1.5,1.9-2.6,4.1-3.3,6.4c-0.7,2.3-1.1,4.6-1.1,7c0,2.3,0.4,4.6,1.1,6.9c0.7,2.3,1.8,4.4,3.1,6.3
			c1.4,1.9,3.1,3.5,5,4.8c2.1,1.3,4.5,2.1,7,2.1h20c2.6,0,5.1-0.6,7.3-1.9c2.1-1.2,3.9-2.9,5.3-4.8c1.5-1.9,2.6-4.1,3.3-6.4
			c1.5-4.5,1.5-9.4,0-13.9C335.9,60.7,334.8,58.6,333.5,56.7z M326.8,69.9c0,1-0.1,2.1-0.4,3.1c-0.2,1-0.6,2-1.2,2.8
			c-0.7,0.9-1.5,1.6-2.4,2c-1.2,0.6-2.6,0.9-4,0.9h-15.6c-1.4,0.1-2.7-0.2-4-0.9c-1-0.5-1.8-1.3-2.4-2.2c-0.6-0.8-1-1.8-1.2-2.8
			c-0.5-2-0.5-4.1,0-6.1c0.2-1,0.6-2,1.2-2.8c0.6-0.9,1.5-1.6,2.4-2.1c1.3-0.6,2.6-0.9,4-0.9h15.6c1.4-0.1,2.8,0.2,4,0.9
			c1,0.5,1.8,1.3,2.4,2.1c0.6,0.9,1,1.8,1.2,2.8C326.8,67.8,326.8,68.8,326.8,69.9L326.8,69.9z"/>
		<path class="st1" d="M443.1,78.8h-24.8c-0.2,0-0.5,0-0.7-0.1c-0.2-0.1-0.4-0.2-0.6-0.4c-0.2-0.1-0.3-0.3-0.4-0.5
			c-0.1-0.2-0.1-0.4-0.1-0.6V55.3c0-0.7-0.1-1.5-0.4-2.2c-0.3-0.7-0.7-1.3-1.3-1.8c-0.5-0.5-1.1-0.9-1.8-1.2
			c-0.7-0.3-1.4-0.4-2.1-0.4c-0.7,0-1.5,0.1-2.1,0.4c-0.7,0.3-1.3,0.7-1.8,1.2c-0.5,0.5-0.9,1.1-1.2,1.8c-0.3,0.7-0.4,1.4-0.4,2.1
			v21.8c0,1.7,0.3,3.5,1.1,5.1c1.1,2.3,2.7,4.3,4.9,5.7s4.6,2.1,7.1,2.1h24.6c1.5,0,2.9-0.6,3.9-1.6c1-1,1.6-2.5,1.6-4
			c0-1.5-0.6-2.9-1.6-4C446,79.4,444.6,78.8,443.1,78.8z"/>
		<path class="st1" d="M503.3,56.4c-1.5-1.9-3.3-3.6-5.3-4.8c-2.2-1.3-4.7-2-7.3-1.9h-30.8c-0.7,0-1.5,0.1-2.1,0.4
			c-0.7,0.3-1.3,0.7-1.8,1.2c-0.5,0.5-0.9,1.1-1.2,1.8c-0.3,0.7-0.4,1.4-0.4,2.1v29c0,0.7,0.1,1.5,0.4,2.1c0.3,0.7,0.7,1.3,1.2,1.8
			c0.5,0.5,1.1,0.9,1.8,1.2c0.7,0.3,1.4,0.4,2.1,0.4h31.7c2.5-0.1,4.8-0.8,6.9-2.1c2-1.3,3.7-2.9,5.1-4.8c1.4-1.9,2.4-4.1,3.1-6.3
			c1.5-4.5,1.5-9.4,0-13.8C506,60.5,504.8,58.4,503.3,56.4z M496.9,69.9c0,1-0.1,2.1-0.4,3.1c-0.2,1-0.6,2-1.2,2.8
			c-0.6,0.9-1.5,1.6-2.4,2.1c-1.2,0.6-2.6,0.9-4,0.9h-23.5V60.9h23.5c1.4-0.1,2.8,0.2,4,0.9c1,0.5,1.8,1.3,2.4,2.1
			c0.6,0.9,1,1.8,1.2,2.8C496.8,67.8,496.9,68.8,496.9,69.9z"/>
		<path class="st1" d="M389.7,74.2h0.1c1.5-0.7,2.9-1.6,4.1-2.7c1.2-1.2,2.1-2.5,2.8-4c1-2.4,1.3-5,0.8-7.5
			c-0.5-2.5-1.7-4.8-3.6-6.6c-1.2-1.2-2.6-2.1-4.1-2.7c-1.6-0.7-3.3-1-5-1h-32c-1.1,0-2.2,0.3-3.1,0.9c-0.9,0.6-1.6,1.5-2.1,2.5
			s-0.6,2.1-0.4,3.2c0.2,1.1,0.7,2.1,1.5,2.9c0.5,0.5,1.1,0.9,1.8,1.2c0.7,0.3,1.4,0.4,2.1,0.4h32.3c0.2,0,0.5,0,0.7,0.1
			c0.2,0.1,0.4,0.2,0.6,0.4c0.2,0.1,0.3,0.3,0.4,0.5c0.1,0.2,0.1,0.4,0.1,0.6c0,0.2,0,0.4-0.1,0.6c-0.1,0.2-0.2,0.4-0.4,0.5
			c-0.3,0.3-0.8,0.5-1.2,0.5h-17.5c-0.9-0.1-1.8,0.1-2.6,0.4c-0.8,0.3-1.6,0.8-2.3,1.4c-0.5,0.6-0.9,1.2-1.2,1.9
			c-0.3,0.7-0.4,1.5-0.3,2.3c0.1,2.3,1.5,5.1,7.5,5.1h0.6l4.9-0.1l14.3,13.1c1,0.9,2.3,1.5,3.7,1.5h0.3c1.1-0.1,2.1-0.4,3-1.1
			c0.9-0.7,1.5-1.6,1.9-2.6c0.4-1,0.4-2.2,0.2-3.2c-0.3-1.1-0.8-2-1.7-2.8L389.7,74.2z"/>
		<path class="st1" d="M352.8,65.2c-0.7,0-1.5,0.1-2.1,0.4c-0.7,0.3-1.3,0.7-1.8,1.2c-0.5,0.5-0.9,1.1-1.2,1.8
			c-0.3,0.7-0.4,1.4-0.4,2.1v13.6c0,0.7,0.1,1.5,0.4,2.1c0.3,0.7,0.7,1.3,1.2,1.8c0.8,0.8,1.8,1.3,2.8,1.5c1.1,0.2,2.2,0.1,3.2-0.3
			c1-0.4,1.9-1.1,2.5-2.1c0.6-0.9,0.9-2,0.9-3.1V70.8c0-0.7-0.1-1.5-0.4-2.1c-0.3-0.7-0.7-1.3-1.2-1.8c-0.5-0.5-1.1-0.9-1.8-1.2
			C354.2,65.4,353.5,65.2,352.8,65.2L352.8,65.2z"/>
		<path class="st2" d="M174.4,3.2c-1.1-1.1-2.4-2-3.9-2.5c-1.5-0.5-3-0.8-4.6-0.7c-1.6,0.1-3.1,0.5-4.4,1.3c-1.4,0.7-2.6,1.8-3.5,3
			l-41.5,61.4c-0.6,0.9-1.4,1.7-2.4,2.2c-1,0.5-2,0.8-3.1,0.8c-1.1,0-2.2-0.3-3.1-0.8c-1-0.5-1.8-1.3-2.4-2.2L94.9,50.2
			c-0.7,1-1.6,1.8-2.7,2.4c-1.7,0.8-2.5,0.6-3.1,2.8c-0.3,1-0.5,2-0.9,2.9c-0.5,1.4-1.5,2.7-2.7,3.6c-1.3,0.7-2.5,1.5-3.6,2.3
			c-0.8,0.9-1.4,2-1.8,3.1l7.5,11c2.7,3.8,6.2,6.8,10.2,9c4.1,2.1,8.6,3.3,13.1,3.4c4.6-0.1,9.1-1.2,13.1-3.4
			c4.1-2.1,7.6-5.2,10.2-9L175,18.3l0.9-1.4c1.3-2.1,1.9-4.6,1.6-7.1C177.2,7.3,176.1,5,174.4,3.2z"/>
		<path class="st2" d="M131.9,3.2c-1.1-1.1-2.4-2-3.9-2.5c-1.5-0.5-3-0.8-4.6-0.7s-3.1,0.5-4.4,1.3s-2.6,1.8-3.5,3L74,65.8
			c-0.6,0.9-1.4,1.7-2.4,2.2c-1,0.5-2,0.8-3.1,0.8c-1.1,0-2.2-0.3-3.1-0.8c-1-0.5-1.8-1.3-2.4-2.2L21.4,4.4c-1-1.3-2.2-2.3-3.6-3
			s-2.9-1.2-4.5-1.3c-1.5-0.1-3,0.2-4.5,0.7C7.4,1.3,6.1,2.2,5,3.2C3.2,5,2.2,7.3,1.9,9.8c-0.3,2.5,0.3,5,1.6,7.1l0.9,1.4L45,78.4
			c2.7,3.8,6.2,6.8,10.2,9c4.1,2.1,8.6,3.3,13.1,3.4c4.6-0.1,9.1-1.2,13.1-3.4c4.1-2.1,7.6-5.2,10.2-9l40.7-60.1l0.9-1.4
			c1.3-2.1,1.9-4.6,1.6-7.1C134.7,7.3,133.7,5,131.9,3.2z"/>
		<path class="st2" d="M86.6,15.8c-1-0.9-2.2-1.7-3.5-2.1c-1.3-0.5-2.7-0.6-4-0.5H57.8c-1.4-0.1-2.7,0.1-4,0.5
			c-1.3,0.5-2.5,1.2-3.5,2.1c-1,0.9-1.8,2.1-2.3,3.3c-0.5,1.3-0.8,2.6-0.8,4c0,1.4,0.2,2.7,0.8,4c0.5,1.3,1.3,2.4,2.3,3.4
			c1,1,2.2,1.7,3.4,2.3c1.3,0.5,2.7,0.7,4,0.7h21.2c1.4,0,2.8-0.2,4.1-0.7c1.3-0.5,2.5-1.3,3.5-2.2c1-0.9,1.8-2.1,2.3-3.4
			c0.5-1.3,0.8-2.6,0.8-4c0-1.4-0.2-2.7-0.8-4C88.3,17.8,87.6,16.7,86.6,15.8z"/>
		<path class="st2" d="M131.9,3.2c-1.1-1.1-2.4-2-3.9-2.5c-1.5-0.5-3-0.8-4.6-0.7s-3.1,0.5-4.4,1.3s-2.6,1.8-3.5,3L74,65.8
			C64.7,79.5,48,82.9,41,72.5l4,5.9c2.7,3.8,6.2,6.8,10.2,9c4.1,2.1,8.6,3.3,13.1,3.4c4.6-0.1,9.1-1.2,13.1-3.4
			c4.1-2.1,7.6-5.2,10.2-9l40.7-60.1l0.9-1.4c1.3-2.1,1.9-4.6,1.6-7.1C134.7,7.3,133.7,5,131.9,3.2z"/>
	</g>
</g>
</svg>
